# xmcd CD database file generated by Grip 3.3.1
# 
# Track frame offsets:
#       150
#       15898
#       32391
#       49327
#       65561
#       81211
#       95294
#       109649
#       123888
#       137702
#       151829
#       164178
# 
# Disc length: 2377 seconds
# 
# Revision: 7
# Processed by: cddbd v1.5.2PL0 Copyright (c) Steve Scherf et al.
# Submitted via: Grip 3.3.1
# 
DISCID=8f09470c
DTITLE=Various Artist - Nothing But The Blues
DYEAR=1935
DGENRE=Blues
TTITLE0=John Lee Hooker - Black Man Blues
TTITLE1=John Lee Hooker - Helpless Blues
TTITLE2=John Lee Hooker - Goin' Mad Blues
TTITLE3=John Lee Hooker - Low Down-Midnite Boogie
TTITLE4=John Lee Hooker - Landing Blues
TTITLE5=John Lee Hooker - Stomp Boogie
TTITLE6=John Lee Hooker - Sally Mae
TTITLE7=John Lee Hooker - Henry's Swing Club
TTITLE8=John Lee Hooker - Alberta
TTITLE9=John Lee Hooker - Boogie Chillen
TTITLE10=John Lee Hooker - War Is Over
TTITLE11=John Lee Hooker and Bernard Besman - Henry's Swing Club (2)
EXTD=YEAR: 1935
EXTT0=
EXTT1=
EXTT2=
EXTT3=
EXTT4=
EXTT5=
EXTT6=
EXTT7=
EXTT8=
EXTT9=
EXTT10=
EXTT11=
PLAYORDER=
